<?xml version="1.0" encoding="utf-8"?>
<!-- Generator: Adobe Illustrator 25.4.1, SVG Export Plug-In . SVG Version: 6.00 Build 0)  -->
<svg version="1.1" id="Ebene_1" xmlns="http://www.w3.org/2000/svg" xmlns:xlink="http://www.w3.org/1999/xlink" x="0px" y="0px"
	 viewBox="0 0 576.8 561.9" style="enable-background:new 0 0 576.8 561.9;" xml:space="preserve">
<style type="text/css">
	.st0{fill:none;stroke:#FFFFFF;stroke-width:8;stroke-linecap:round;stroke-linejoin:round;stroke-miterlimit:10;}
</style>
<g>
	<g>
		<path class="st0" d="M205.6,116.4c0,45.5-36.9,82.4-82.4,82.4s-82.4-36.9-82.4-82.4S77.6,34,123.2,34v82.4H205.6z"/>
		<path class="st0" d="M223.4,98.6H141V16.2C186.5,16.2,223.4,53.1,223.4,98.6z"/>
	</g>
	<g>
		<path class="st0" d="M104.4,466.1V216.7"/>
		<path class="st0" d="M230.1,116.2h281.3c13.6,0,24.7,11,24.7,24.7v322.7c0,13.6-11,24.7-24.7,24.7H179"/>
		<line class="st0" x1="227.8" y1="436.6" x2="536.1" y2="436.6"/>
		<line class="st0" x1="104.4" y1="436.6" x2="134.9" y2="436.6"/>
		<g>
			<circle class="st0" cx="432.5" cy="152.9" r="6.4"/>
			<circle class="st0" cx="464.4" cy="152.9" r="6.4"/>
			<circle class="st0" cx="496.3" cy="152.9" r="6.4"/>
		</g>
		<line class="st0" x1="458" y1="408" x2="458" y2="342.6"/>
		<line class="st0" x1="480.3" y1="408" x2="480.3" y2="375.3"/>
		<line class="st0" x1="480.3" y1="365.7" x2="480.3" y2="321.7"/>
		<line class="st0" x1="480.3" y1="310.8" x2="480.3" y2="293.7"/>
		<line class="st0" x1="435" y1="408.8" x2="435" y2="374.5"/>
		<line class="st0" x1="502.7" y1="408" x2="502.7" y2="329.8"/>
		<line class="st0" x1="502.7" y1="300.6" x2="502.7" y2="256.1"/>
		<line class="st0" x1="502.7" y1="320.1" x2="502.7" y2="310.5"/>
		<line class="st0" x1="379.8" y1="463" x2="458" y2="463"/>
		<line class="st0" x1="480.2" y1="463" x2="502.7" y2="463"/>
	</g>
	<g>
		<line class="st0" x1="369" y1="488.3" x2="369" y2="508.8"/>
		<line class="st0" x1="271.5" y1="508.8" x2="271.5" y2="488.3"/>
	</g>
	<path class="st0" d="M273.2,508.8h94.1c15.3,0,27.7,12.4,27.7,27.7l0,0H245.5l0,0C245.5,521.2,257.9,508.8,273.2,508.8z"/>
	<polyline class="st0" points="145.4,331.6 175.8,362 198.4,339.4 	"/>
	<polyline class="st0" points="216.9,312.4 252.2,279.3 319.6,344 398.1,265.5 	"/>
	<polyline class="st0" points="220.1,332.8 252.2,300.9 319.6,368.1 402.5,285.2 	"/>
	<g>
		<line class="st0" x1="418.4" y1="259.5" x2="455.1" y2="222.8"/>
		<polyline class="st0" points="434.9,218.6 459.8,218.6 459.8,243.5 		"/>
	</g>
	<g>
		<circle class="st0" cx="311.7" cy="302.5" r="105.9"/>
		<path class="st0" d="M250.2,391.1L105.6,540.6c-6.4,6.7-17,6.9-23.7,0.5h0c-6.7-6.4-6.9-17-0.5-23.7l144.6-149.5"/>
	</g>
</g>
</svg>
