<?xml version="1.0" encoding="utf-8"?>
<!-- Generator: Adobe Illustrator 25.4.1, SVG Export Plug-In . SVG Version: 6.00 Build 0)  -->
<svg version="1.1" id="Ebene_1" xmlns="http://www.w3.org/2000/svg" xmlns:xlink="http://www.w3.org/1999/xlink" x="0px" y="0px"
	 viewBox="0 0 371.6 313" style="enable-background:new 0 0 371.6 313;" xml:space="preserve">
<style type="text/css">
	.st0{fill:none;stroke:#383838;stroke-width:10;stroke-linecap:round;stroke-linejoin:round;stroke-miterlimit:10;}
</style>
<g>
	<path class="st0" d="M249.6,81.4h9.1v23.2l20.7-23.2h70.6c3.8,0,6.8-3,6.8-6.8v-55c0-3.8-3-6.8-6.8-6.8H249.6c-3.8,0-6.8,3-6.8,6.8
		v55C242.8,78.3,245.8,81.4,249.6,81.4z"/>
	<path class="st0" d="M309.6,30.6c-4.2,0-7.8,2.3-9.8,5.6c-2-3.4-5.6-5.6-9.8-5.6c-6.3,0-11.4,5.1-11.4,11.4
		c0,14.4,21.2,23.1,21.2,23.1S321,55.7,321,42C321,35.7,315.9,30.6,309.6,30.6z"/>
	<g>
		<path class="st0" d="M114.3,257.8h-9.1V281l-20.7-23.2H13.9c-3.8,0-6.8-3-6.8-6.8v-55c0-3.8,3-6.8,6.8-6.8h100.3
			c3.8,0,6.8,3,6.8,6.8v55C121.1,254.8,118,257.8,114.3,257.8z"/>
		<g>
			<line class="st0" x1="47.3" y1="207.3" x2="80.9" y2="240.9"/>
			<line class="st0" x1="80.9" y1="207.3" x2="47.3" y2="240.9"/>
		</g>
	</g>
	<g>
		<g>
			<path class="st0" d="M146.9,300.3v-122c0-3.3-0.9-6.5-2.5-9.3v0c-4.7-8.3-7.2-17.7-7.2-27.3v0V81.1c0-5.2,4.2-9.3,9.3-9.3h0
				c5.2,0,9.3,4.2,9.3,9.3v40.3"/>
			<path class="st0" d="M155.9,121.4V67c0-5.2,4.2-9.3,9.3-9.3h0c5.2,0,9.3,4.2,9.3,9.3v44.3"/>
			<path class="st0" d="M174.6,108.1V53.7c0-5.2,4.2-9.3,9.3-9.3h0c5.2,0,9.3,4.2,9.3,9.3v64.3"/>
			<path class="st0" d="M193.3,118.1V74c0-5.2,4.2-9.3,9.3-9.3h0c5.2,0,9.3,4.2,9.3,9.3v32.5"/>
			<path class="st0" d="M187.1,156c0-11.9,9.6-21,21.5-21l0-21.1c0-5.2,4.2-9.3,9.3-9.3h0c5.2,0,9.3,4.2,9.3,9.3v24
				c0,15.1-5.2,29.7-14.8,41.3l0,0v121"/>
		</g>
		<g>
			<path class="st0" d="M318,300.3v-44.8c0-3.3,0.9-6.5,2.5-9.3v0c4.7-8.3,7.2-17.7,7.2-27.3v0v-60.6c0-5.2-4.2-9.3-9.3-9.3h0
				c-5.2,0-9.3,4.2-9.3,9.3v40.3"/>
			<path class="st0" d="M309.1,198.6v-54.4c0-5.2-4.2-9.3-9.3-9.3h0c-5.2,0-9.3,4.2-9.3,9.3v44.3"/>
			<path class="st0" d="M290.4,185.4V131c0-5.2-4.2-9.3-9.3-9.3l0,0c-5.2,0-9.3,4.2-9.3,9.3v64.3"/>
			<path class="st0" d="M271.7,195.3v-44.1c0-5.2-4.2-9.3-9.3-9.3l0,0c-5.2,0-9.3,4.2-9.3,9.3v27.5"/>
			<path class="st0" d="M275.9,228.2c0-11.9-9.6-21-21.5-21l0-22.1c0-5.2-4.2-9.3-9.3-9.3h0c-5.2,0-9.3,4.2-9.3,9.3v19.1
				c0,17.9,8,34.9,21.8,46.3v0v49.8"/>
		</g>
	</g>
	<line class="st0" x1="356.7" y1="300.3" x2="79.5" y2="300.3"/>
</g>
</svg>
