<?xml version="1.0" encoding="utf-8"?>
<!-- Generator: Adobe Illustrator 25.4.1, SVG Export Plug-In . SVG Version: 6.00 Build 0)  -->
<svg version="1.1" baseProfile="tiny" id="Ebene_1" xmlns="http://www.w3.org/2000/svg" xmlns:xlink="http://www.w3.org/1999/xlink"
	 x="0px" y="0px" viewBox="0 0 576.8 454.6" overflow="visible" xml:space="preserve">
<g>
	<g>
		<path fill="none" stroke="#383838" stroke-width="8" stroke-linecap="round" stroke-linejoin="round" stroke-miterlimit="10" d="
			M341,171.4v-23.9l-92.1-92.1H65c-13,0-23.5,10.5-23.5,23.5v345c0,13,10.5,23.5,23.5,23.5h252.5c13,0,23.5-10.5,23.5-23.5V292.5"/>
		
			<polyline fill="none" stroke="#383838" stroke-width="8" stroke-linecap="round" stroke-linejoin="round" stroke-miterlimit="10" points="
			339.6,147.2 249.5,147.2 249.5,57.1 		"/>
	</g>
	<g>
		
			<polyline fill="none" stroke="#383838" stroke-width="8" stroke-linecap="round" stroke-linejoin="round" stroke-miterlimit="10" points="
			250.5,377.8 269.4,396.7 320.6,345.6 		"/>
		
			<polyline fill="none" stroke="#383838" stroke-width="8" stroke-linecap="round" stroke-linejoin="round" stroke-miterlimit="10" points="
			299,393.7 299,418.6 233.2,418.6 233.2,352.7 282.8,352.7 		"/>
	</g>
	<g>
		
			<rect x="390.3" y="38.7" transform="matrix(0.6186 0.7857 -0.7857 0.6186 293.7621 -260.264)" fill="none" stroke="#383838" stroke-width="8" stroke-linecap="round" stroke-linejoin="round" stroke-miterlimit="10" width="49.4" height="267.4"/>
		
			<polygon fill="none" stroke="#383838" stroke-width="8" stroke-linecap="round" stroke-linejoin="round" stroke-miterlimit="10" points="
			325.2,274.6 265.7,289.9 294.6,235.8 		"/>
	</g>
	<g>
		<path fill="none" stroke="#383838" stroke-width="8" stroke-linecap="round" stroke-linejoin="round" stroke-miterlimit="10" d="
			M382.9,143.3V32.9c0-13-10.5-23.5-23.5-23.5H106.9c-13,0-23.5,10.5-23.5,23.5"/>
		<path fill="none" stroke="#383838" stroke-width="8" stroke-linecap="round" stroke-linejoin="round" stroke-miterlimit="10" d="
			M359.4,401.4c13,0,23.5-10.5,23.5-23.5V251.3"/>
	</g>
	<g>
		
			<circle fill="none" stroke="#383838" stroke-width="8" stroke-linecap="round" stroke-linejoin="round" stroke-miterlimit="10" cx="127.2" cy="112.6" r="25.3"/>
		<path fill="none" stroke="#383838" stroke-width="8" stroke-linecap="round" stroke-linejoin="round" stroke-miterlimit="10" d="
			M170.4,197.9H84c-3.3,0-6-2.7-6-6v0c0-22.6,18.4-41,41-41h16.4c22.6,0,41,18.4,41,41v0C176.4,195.2,173.7,197.9,170.4,197.9z"/>
	</g>
	
		<line fill="none" stroke="#383838" stroke-width="8" stroke-linecap="round" stroke-linejoin="round" stroke-miterlimit="10" x1="78" y1="237.8" x2="230.9" y2="237.8"/>
	
		<line fill="none" stroke="#383838" stroke-width="8" stroke-linecap="round" stroke-linejoin="round" stroke-miterlimit="10" x1="78" y1="269.5" x2="165.7" y2="269.5"/>
	
		<line fill="none" stroke="#383838" stroke-width="8" stroke-linecap="round" stroke-linejoin="round" stroke-miterlimit="10" x1="78" y1="301.2" x2="165.7" y2="301.2"/>
	<g>
		
			<line fill="none" stroke="#383838" stroke-width="8" stroke-linecap="round" stroke-linejoin="round" stroke-miterlimit="10" x1="78" y1="369.7" x2="165.7" y2="369.7"/>
		
			<line fill="none" stroke="#383838" stroke-width="8" stroke-linecap="round" stroke-linejoin="round" stroke-miterlimit="10" x1="78" y1="401.4" x2="165.7" y2="401.4"/>
	</g>
</g>
</svg>
