<?xml version="1.0" encoding="utf-8"?>
<!-- Generator: Adobe Illustrator 25.4.1, SVG Export Plug-In . SVG Version: 6.00 Build 0)  -->
<svg version="1.1" id="Ebene_1" xmlns="http://www.w3.org/2000/svg" xmlns:xlink="http://www.w3.org/1999/xlink" x="0px" y="0px"
	 viewBox="0 0 576.8 429" style="enable-background:new 0 0 576.8 429;" xml:space="preserve">
<style type="text/css">
	.st0{fill:none;stroke:#383838;stroke-width:8;stroke-linecap:round;stroke-linejoin:round;stroke-miterlimit:10;}
</style>
<g>
	<g>
		<g>
			<path class="st0" d="M407.2,102.6H556c9.6,0,17.4,7.8,17.4,17.4v226.9c0,9.6-7.8,17.4-17.4,17.4H287.2c-9.6,0-17.4-7.8-17.4-17.4
				V289"/>
			<line class="st0" x1="269.8" y1="327.9" x2="573.4" y2="327.9"/>
			<g>
				<circle class="st0" cx="500.5" cy="128.5" r="4.5"/>
				<circle class="st0" cx="523" cy="128.5" r="4.5"/>
				<circle class="st0" cx="545.4" cy="128.5" r="4.5"/>
			</g>
			<line class="st0" x1="518.5" y1="307.8" x2="518.5" y2="261.9"/>
			<line class="st0" x1="534.2" y1="307.8" x2="534.2" y2="284.8"/>
			<line class="st0" x1="534.2" y1="268.1" x2="534.2" y2="237.2"/>
			<line class="st0" x1="534.2" y1="219.5" x2="534.2" y2="207.4"/>
			<line class="st0" x1="502.4" y1="308.4" x2="502.4" y2="284.3"/>
			<line class="st0" x1="549.9" y1="307.8" x2="549.9" y2="252.8"/>
			<line class="st0" x1="549.9" y1="212.3" x2="549.9" y2="181"/>
			<line class="st0" x1="549.9" y1="236" x2="549.9" y2="229.2"/>
			<line class="st0" x1="463.5" y1="346.5" x2="518.5" y2="346.5"/>
			<line class="st0" x1="534.1" y1="346.5" x2="549.9" y2="346.5"/>
		</g>
		<g>
			<line class="st0" x1="455.9" y1="364.3" x2="455.9" y2="378.7"/>
			<line class="st0" x1="387.3" y1="378.7" x2="387.3" y2="364.3"/>
		</g>
		<path class="st0" d="M388.5,378.7h66.2c10.8,0,19.5,8.7,19.5,19.5l0,0H369l0,0C369,387.4,377.8,378.7,388.5,378.7z"/>
	</g>
	<g>
		<g>
			<g>
				<path class="st0" d="M189.4,225.1v-13.1l-57.2-57.2H18c-8.1,0-14.6,6.5-14.6,14.6v214.3c0,8.1,6.5,14.6,14.6,14.6h156.8
					c8.1,0,14.6-6.5,14.6-14.6V302"/>
				<polyline class="st0" points="188.5,211.7 132.6,211.7 132.6,155.8 				"/>
			</g>
			<g>
				<polyline class="st0" points="38.3,216.9 50,228.7 81.8,196.9 				"/>
				<polyline class="st0" points="68.4,226.8 68.4,242.2 27.5,242.2 27.5,201.3 58.3,201.3 				"/>
			</g>
			<g>
				<polyline class="st0" points="38.3,278.2 50,289.9 81.8,258.1 				"/>
				<polyline class="st0" points="68.4,288 68.4,303.5 27.5,303.5 27.5,262.6 58.3,262.6 				"/>
			</g>
			<g>
				<rect x="27.5" y="323.8" class="st0" width="40.9" height="40.9"/>
			</g>
			<g>
				
					<rect x="166.4" y="185" transform="matrix(0.6186 0.7857 -0.7857 0.6186 279.93 -40.5425)" class="st0" width="30.7" height="166.1"/>
				<polygon class="st0" points="126,331.5 89,341 107,307.4 				"/>
			</g>
		</g>
		<g>
			<path class="st0" d="M215.4,209.4v-68.6c0-8.1-6.5-14.6-14.6-14.6H44c-8.1,0-14.6,6.5-14.6,14.6"/>
			<path class="st0" d="M200.8,369.7c8.1,0,14.6-6.5,14.6-14.6v-78.6"/>
		</g>
	</g>
	<polyline class="st0" points="233.5,274 365.8,274 365.8,316.3 449.1,189.2 365.8,62.1 365.8,104.4 160.6,104.4 	"/>
	<g>
		<circle class="st0" cx="325.4" cy="157.9" r="25.3"/>
		<path class="st0" d="M368.6,240.5h-86.5c-3.3,0-6-2.7-6-6v0c0-22.7,18.4-41.1,41.1-41.1h16.4c22.7,0,41.1,18.4,41.1,41.1v0
			C374.6,237.8,371.9,240.5,368.6,240.5z"/>
	</g>
</g>
</svg>
