<?xml version="1.0" encoding="utf-8"?>
<!-- Generator: Adobe Illustrator 25.4.1, SVG Export Plug-In . SVG Version: 6.00 Build 0)  -->
<svg version="1.1" baseProfile="tiny" id="Ebene_1" xmlns="http://www.w3.org/2000/svg" xmlns:xlink="http://www.w3.org/1999/xlink"
	 x="0px" y="0px" viewBox="0 0 576.8 454.6" overflow="visible" xml:space="preserve">
<g>
	<g>
		<g>
			<g>
				
					<path fill="none" stroke="#FFFFFF" stroke-width="8" stroke-linecap="round" stroke-linejoin="round" stroke-miterlimit="10" d="
					M308.3,384.9h135.8c11,0,19.8-8.9,19.8-19.8V254.2"/>
				
					<path fill="none" stroke="#FFFFFF" stroke-width="8" stroke-linecap="round" stroke-linejoin="round" stroke-miterlimit="10" d="
					M463.9,149.8v-17.8l-77.7-77.7H231.1c-11,0-19.8,8.9-19.8,19.8v106.1"/>
				
					<polyline fill="none" stroke="#FFFFFF" stroke-width="8" stroke-linecap="round" stroke-linejoin="round" stroke-miterlimit="10" points="
					462.6,131.7 386.7,131.7 386.7,55.7 				"/>
			</g>
			<g>
				
					<polyline fill="none" stroke="#FFFFFF" stroke-width="8" stroke-linecap="round" stroke-linejoin="round" stroke-miterlimit="10" points="
					258.6,138.7 274.5,154.7 317.7,111.5 				"/>
				
					<polyline fill="none" stroke="#FFFFFF" stroke-width="8" stroke-linecap="round" stroke-linejoin="round" stroke-miterlimit="10" points="
					299.5,152.1 299.5,173.1 244,173.1 244,117.5 285.8,117.5 				"/>
			</g>
			<g>
				
					<rect x="432.6" y="95.4" transform="matrix(0.6186 0.7857 -0.7857 0.6186 336.5039 -276.8727)" fill="none" stroke="#FFFFFF" stroke-width="8" stroke-linecap="round" stroke-linejoin="round" stroke-miterlimit="10" width="41.7" height="225.6"/>
				
					<polygon fill="none" stroke="#FFFFFF" stroke-width="8" stroke-linecap="round" stroke-linejoin="round" stroke-miterlimit="10" points="
					377.7,294.3 327.5,307.3 351.9,261.6 				"/>
			</g>
		</g>
		<g>
			<path fill="none" stroke="#FFFFFF" stroke-width="8" stroke-linecap="round" stroke-linejoin="round" stroke-miterlimit="10" d="
				M499.2,126.4V35.3c0-11-8.9-19.8-19.8-19.8h-213c-11,0-19.8,8.9-19.8,19.8"/>
			<path fill="none" stroke="#FFFFFF" stroke-width="8" stroke-linecap="round" stroke-linejoin="round" stroke-miterlimit="10" d="
				M479.4,346.2c11,0,19.8-8.9,19.8-19.8V219.5"/>
		</g>
	</g>
	<g>
		
			<circle fill="none" stroke="#FFFFFF" stroke-width="8" stroke-linecap="round" stroke-linejoin="round" stroke-miterlimit="10" cx="101.7" cy="130.4" r="43.1"/>
		<path fill="none" stroke="#FFFFFF" stroke-width="8" stroke-linecap="round" stroke-linejoin="round" stroke-miterlimit="10" d="
			M137.1,271h-109c-5.6,0-10.2-4.6-10.2-10.2v0c0-38.6,31.3-69.9,69.9-69.9h27.9c14.5,0,27.9,4.4,39.1,11.9"/>
	</g>
	<g>
		<path fill="none" stroke="#FFFFFF" stroke-width="8" stroke-linecap="round" stroke-linejoin="round" stroke-miterlimit="10" d="
			M277.6,439.1H145.5c-9.7,0-17.5-7.8-17.5-17.5V318.4c0-9.7,7.8-17.5,17.5-17.5h132.1c9.7,0,17.5,7.8,17.5,17.5v103.2
			C295.1,431.3,287.3,439.1,277.6,439.1z"/>
		<path fill="none" stroke="#FFFFFF" stroke-width="8" stroke-linecap="round" stroke-linejoin="round" stroke-miterlimit="10" d="
			M229.2,351c0-9.7-7.9-17.6-17.6-17.6c-9.7,0-17.6,7.9-17.6,17.6c0,5.9,2.9,11.1,7.4,14.3l-4.7,41.4h29.8l-4.7-41.4
			C226.3,362.1,229.2,356.9,229.2,351z"/>
		<path fill="none" stroke="#FFFFFF" stroke-width="8" stroke-linecap="round" stroke-linejoin="round" stroke-miterlimit="10" d="
			M171.1,300.9c0,0,0-26,0-48.4s18.1-40.5,40.5-40.5s40.5,18.1,40.5,40.5c0,9.6,0,33.3,0,33.3h16.5c0,0,0-6,0-32.3
			c0-31.5-25.5-57-57-57s-57,25.5-57,57s0,47.4,0,47.4"/>
	</g>
</g>
</svg>
