<?xml version="1.0" encoding="utf-8"?>
<!-- Generator: Adobe Illustrator 25.4.1, SVG Export Plug-In . SVG Version: 6.00 Build 0)  -->
<svg version="1.1" id="Ebene_1" xmlns="http://www.w3.org/2000/svg" xmlns:xlink="http://www.w3.org/1999/xlink" x="0px" y="0px"
	 viewBox="0 0 576.8 414" style="enable-background:new 0 0 576.8 414;" xml:space="preserve">
<style type="text/css">
	.st0{fill:none;stroke:#383838;stroke-width:8;stroke-linecap:round;stroke-linejoin:round;stroke-miterlimit:10;}
</style>
<g>
	<path class="st0" d="M363.7,372.1c0,16.7-13.6,30.3-30.3,30.3"/>
	<path class="st0" d="M303.1,341.8H130.5c0,0,0,13.6,0,30.3c0,16.7,13.6,30.3,30.3,30.3h172.6c-16.7,0-30.3-13.6-30.3-30.3
		C303.1,355.4,303.1,341.8,303.1,341.8z"/>
	<path class="st0" d="M191.1,341.8V185.4c0-12.9,10.5-23.4,23.4-23.4h172.6c-12.9,0-23.4,10.5-23.4,23.4V372"/>
	<path class="st0" d="M363.7,208.8h46.8c0,0,0-10.5,0-23.4S400,162,387.1,162"/>
	<line class="st0" x1="223.7" y1="291.7" x2="328.5" y2="291.7"/>
	<line class="st0" x1="223.7" y1="313.9" x2="328.5" y2="313.9"/>
	<g>
		<polyline class="st0" points="264.9,237.7 273.6,246 289.5,230.8 		"/>
		<path class="st0" d="M302.5,236.6v-18.3l-26.4-16.1l-26.4,16.1v18.3c0,8.1,4.1,15.7,10.9,20.1l15.5,10.1l15.5-10.1
			C298.4,252.2,302.5,244.7,302.5,236.6z"/>
	</g>
</g>
<g>
	<path class="st0" d="M124.1,84.1H114v25.7L91.1,84.1H12.9c-4.2,0-7.5-3.4-7.5-7.5v-61c0-4.2,3.4-7.5,7.5-7.5h111.2
		c4.2,0,7.5,3.4,7.5,7.5v61C131.7,80.7,128.3,84.1,124.1,84.1z"/>
	<g>
		<line class="st0" x1="49.9" y1="28.1" x2="87.1" y2="65.3"/>
		<line class="st0" x1="87.1" y1="28.1" x2="49.9" y2="65.3"/>
	</g>
</g>
<g>
	<path class="st0" d="M270.5,117.1h-10.1v25.7l-22.9-25.7h-78.2c-4.2,0-7.5-3.4-7.5-7.5v-61c0-4.2,3.4-7.5,7.5-7.5h111.2
		c4.2,0,7.5,3.4,7.5,7.5v61C278,113.7,274.6,117.1,270.5,117.1z"/>
	<g>
		<line class="st0" x1="188.5" y1="79.7" x2="241.2" y2="79.7"/>
	</g>
</g>
<g>
	<path class="st0" d="M452.7,117.1h10.1v25.7l22.9-25.7h78.2c4.2,0,7.5-3.4,7.5-7.5v-61c0-4.2-3.4-7.5-7.5-7.5H452.7
		c-4.2,0-7.5,3.4-7.5,7.5v61C445.1,113.7,448.5,117.1,452.7,117.1z"/>
	<g>
		<polyline class="st0" points="515,60.8 533.4,79.3 515,97.8 		"/>
		<polyline class="st0" points="494.8,60.8 513.2,79.3 494.8,97.8 		"/>
	</g>
</g>
<g>
	<path class="st0" d="M306.3,84.1h10.1v25.7l22.9-25.7h78.2c4.2,0,7.5-3.4,7.5-7.5v-61c0-4.2-3.4-7.5-7.5-7.5H306.3
		c-4.2,0-7.5,3.4-7.5,7.5v61C298.8,80.7,302.2,84.1,306.3,84.1z"/>
	<polyline class="st0" points="341.6,45.3 357.3,60.2 385.8,32.9 	"/>
</g>
</svg>
