<?xml version="1.0" encoding="utf-8"?>
<!-- Generator: Adobe Illustrator 25.4.1, SVG Export Plug-In . SVG Version: 6.00 Build 0)  -->
<svg version="1.1" id="Ebene_1" xmlns="http://www.w3.org/2000/svg" xmlns:xlink="http://www.w3.org/1999/xlink" x="0px" y="0px"
	 viewBox="0 0 576.8 561.9" style="enable-background:new 0 0 576.8 561.9;" xml:space="preserve">
<style type="text/css">
	.st0{fill:none;stroke:#383838;stroke-width:8;stroke-linecap:round;stroke-linejoin:round;stroke-miterlimit:10;}
</style>
<g>
	<g>
		<path class="st0" d="M427.8,114.8h11.9v30.4l27.1-30.4h92.5c4.9,0,8.9-4,8.9-8.9V33.7c0-4.9-4-8.9-8.9-8.9H427.8
			c-4.9,0-8.9,4-8.9,8.9v72.2C418.9,110.8,422.9,114.8,427.8,114.8z"/>
		<g>
			<path class="st0" d="M475.8,97.4l-13.4,0c-2.2,0-3.9-1.8-3.9-3.9l0-25.8c0-2.2,1.8-3.9,3.9-3.9l13.4,0c2.2,0,3.9,1.8,3.9,3.9
				v25.8C479.7,95.6,477.9,97.4,475.8,97.4z"/>
			<path class="st0" d="M479.7,93.7c0,5.1,4.8,5.1,10.2,5.1c6.4,0,14.6,0,22.2,0c6.1,0,9-1.8,10.1-6.9c0.2-0.8,0.3-1.8,0.9-2.3
				c2.3-2,2.8-4.5,2.4-7.3c-0.1-0.5,0.3-1.3,0.7-1.7c2.6-2.5,2.9-4.2,1.6-7.7c-0.3-0.8-0.3-1.9,0.1-2.7c2.8-6.5-1.9-10.4-7.7-10.4
				c-6,0-14.1,0-18.5,0c1.3-4.6,1.7-10.5,0.9-13.8c-1.2-4.8-4.8-8.8-8.1-8.8c-1.9,0-2.7,1.8-2.7,3.6c0,15.4-6.6,23.4-12,26.8"/>
		</g>
	</g>
	<g>
		<path class="st0" d="M149,254.5H137v30.4l-27.1-30.4H17.4c-4.9,0-8.9-4-8.9-8.9v-72.2c0-4.9,4-8.9,8.9-8.9H149
			c4.9,0,8.9,4,8.9,8.9v72.2C157.9,250.5,153.9,254.5,149,254.5z"/>
		<g>
			<line class="st0" x1="61.2" y1="188.2" x2="105.2" y2="232.3"/>
			<line class="st0" x1="105.2" y1="188.2" x2="61.2" y2="232.3"/>
		</g>
	</g>
	<circle class="st0" cx="287.9" cy="240.5" r="15.8"/>
	<g>
		<g>
			<line class="st0" x1="422.8" y1="172.9" x2="304.8" y2="234.4"/>
		</g>
		<g>
			<line class="st0" x1="271.1" y1="248.6" x2="153.1" y2="310.1"/>
		</g>
	</g>
	<g>
		<line class="st0" x1="279.4" y1="475.6" x2="279.4" y2="254.4"/>
		<line class="st0" x1="296.5" y1="254.4" x2="296.5" y2="475.6"/>
	</g>
	<path class="st0" d="M257.6,506.8v-23.1c0-4,3.2-7.2,7.2-7.2h46.3c4,0,7.2,3.2,7.2,7.2v23.1h19.4c4,0,7.2,3.2,7.2,7.2v23.1H231.1
		v-23.1c0-4,3.2-7.2,7.2-7.2h49.7"/>
	<g>
		<g>
			<path class="st0" d="M381.2,298.3c7.8,20.5,27.6,35,50.8,35s43-14.5,50.8-35H381.2z"/>
			<circle class="st0" cx="432.1" cy="172.9" r="8.7"/>
			<polyline class="st0" points="428.1,181.6 382,298.3 482.1,298.3 436,181.6 			"/>
		</g>
		<g>
			<path class="st0" d="M194.6,435.5c-7.8,20.5-27.6,35-50.8,35s-43-14.5-50.8-35H194.6z"/>
			<circle class="st0" cx="143.8" cy="310.1" r="8.7"/>
			<polyline class="st0" points="147.8,318.8 193.9,435.5 93.8,435.5 139.8,318.8 			"/>
		</g>
	</g>
</g>
</svg>
