<?xml version="1.0" encoding="utf-8"?>
<!-- Generator: Adobe Illustrator 25.4.1, SVG Export Plug-In . SVG Version: 6.00 Build 0)  -->
<svg version="1.1" id="Ebene_1" xmlns="http://www.w3.org/2000/svg" xmlns:xlink="http://www.w3.org/1999/xlink" x="0px" y="0px"
	 viewBox="0 0 576.8 561.9" style="enable-background:new 0 0 576.8 561.9;" xml:space="preserve">
<style type="text/css">
	.st0{fill:none;stroke:#383838;stroke-width:8;stroke-linecap:round;stroke-linejoin:round;stroke-miterlimit:10;}
</style>
<g>
	<path class="st0" d="M266.6,222.5h-16.2v41.3l-36.8-41.3H87.8c-6.7,0-12.1-5.4-12.1-12.1v-98c0-6.7,5.4-12.1,12.1-12.1h178.8
		c6.7,0,12.1,5.4,12.1,12.1v98C278.7,217,273.3,222.5,266.6,222.5z"/>
	<path class="st0" d="M328.8,134.5h16.2v41.3l36.8-41.3h125.7c6.7,0,12.1-5.4,12.1-12.1v-98c0-6.7-5.4-12.1-12.1-12.1H328.8
		c-6.7,0-12.1,5.4-12.1,12.1v98C316.7,129.1,322.2,134.5,328.8,134.5z"/>
	<g>
		<path class="st0" d="M253.3,518.5c0,17.2-14,31.2-31.2,31.2"/>
		<path class="st0" d="M191,487.4H13.4c0,0,0,14,0,31.2c0,17.2,14,31.2,31.2,31.2h177.6c-17.2,0-31.2-14-31.2-31.2
			C191,501.3,191,487.4,191,487.4z"/>
		<path class="st0" d="M75.7,487.4V326.5c0-13.3,10.8-24.1,24.1-24.1h177.6c-13.3,0-24.1,10.8-24.1,24.1v192"/>
		<path class="st0" d="M253.3,350.5h48.1c0,0,0-10.8,0-24.1s-10.8-24.1-24.1-24.1"/>
		<line class="st0" x1="109.2" y1="435.8" x2="217.2" y2="435.8"/>
		<line class="st0" x1="109.2" y1="458.6" x2="217.2" y2="458.6"/>
		<g>
			<polyline class="st0" points="151.7,380.3 160.6,388.8 177,373.1 			"/>
			<path class="st0" d="M190.3,379.1v-18.8l-27.1-16.5l-27.1,16.5v18.8c0,8.3,4.2,16.1,11.2,20.7l15.9,10.4l15.9-10.4
				C186.1,395.2,190.3,387.4,190.3,379.1z"/>
		</g>
	</g>
	<line class="st0" x1="295.3" y1="350.5" x2="563.5" y2="350.5"/>
	<path class="st0" d="M519.9,350.5v179.2c0,11-9,20-20,20H358.9c-11,0-20-9-20-20V299.8l35.4-35.6"/>
	<g>
		<path class="st0" d="M519.9,350.5V309c0-16.7-13.5-30.2-30.2-30.2H444c-16.7,0-30.2,13.5-30.2,30.2v41.6"/>
		<circle class="st0" cx="466.8" cy="204.8" r="40.9"/>
	</g>
	<path class="st0" d="M435.7,44c-7.5,0-14,4-17.5,10c-3.5-6-10.1-10-17.5-10c-11.2,0-20.3,9.1-20.3,20.3c0,25.6,37.8,41.2,37.8,41.2
		s37.8-16.8,37.8-41.2C456.1,53.1,447,44,435.7,44z"/>
	<g>
		<path class="st0" d="M153.1,125l-18.2,0c-3,0-5.3,2.4-5.3,5.3v35c0,3,2.4,5.3,5.3,5.3h18.2c3,0,5.3-2.4,5.3-5.3l0-35
			C158.4,127.4,156,125,153.1,125z"/>
		<path class="st0" d="M158.4,130.1c0-6.9,6.6-6.9,13.9-6.9c8.7,0,19.8,0,30.2,0c8.2,0,12.3,2.5,13.7,9.4c0.2,1.1,0.5,2.4,1.2,3.1
			c3.1,2.7,3.8,6,3.3,9.9c-0.1,0.7,0.4,1.8,0.9,2.3c3.5,3.4,4,5.8,2.2,10.4c-0.4,1.1-0.4,2.6,0.1,3.7c3.9,8.8-2.6,14.2-10.5,14.2
			c-8.2,0-19.1,0-25.2,0c1.8,6.2,2.3,14.2,1.2,18.7c-1.6,6.5-6.5,12-11,12c-2.5,0-3.7-2.4-3.7-4.9c0-20.9-8.9-31.8-16.3-36.4"/>
	</g>
</g>
</svg>
